<svg version="1.2" xmlns="http://www.w3.org/2000/svg" viewBox="0 0 803 770" width="803" height="770">
	<title>새 프로젝트</title>
	<style>
		.s0 { fill: #fd992d } 
	</style>
	<path id="볼래? 말래?" fill-rule="evenodd" class="s0" d="m21.9 202.9c-14.4 0-21.9-8.7-21.9-25.2 0-16.1 7.2-25.5 21.9-25.5h87.9v-18.5h-63.9c-27.9 0-33.6-14.9-33.6-42v-52.7c0-25.5 15-35 30.9-35 12.9 0 26.4 8.3 29.7 26.7h134.4c2.7-19.2 15.9-26.7 30-26.7 15.3 0 30.6 9.8 30.6 35v94.7h-96.9v18.5h87.9c14.7 0 21.9 9.4 21.9 25.5 0 16.5-7.5 25.2-21.9 25.2zm51.9-124.2c0 7.8 2.1 11.8 9.3 11.8h123.6v-17.7h-132.9zm186.3 249.2c12.3 0 16.8 10.6 16.8 22 0 11.4-4.2 22-16.8 22h-213.9c-25.8 0-37.8-22-37.8-48.4v-2.7c0-26.3 11.7-45.6 37.8-45.6h160.5v-7.9c0-3.5-1.5-5.5-5.1-5.5h-173.1c-11.1 0-17.1-10.2-17.1-21.6 0-11.4 5.1-22 17.1-22h206.4c25.5 0 33.6 12.6 33.6 36.6v59.3h-189.6c-3.9 0-6 3.1-6 7.1 0 3.9 2.1 6.7 6 6.7zm331.8-291.3v335.3h-52.5v-161.2h-15v161.2h-52.5v-335.3c0-20.4 10.5-33.8 26.4-33.8 15.9 0 26.1 13.4 26.1 33.8v108.9h15v-108.9c0-20.4 10.5-33.8 26.4-33.8 15.9 0 26.1 13.4 26.1 33.8zm-152.7 254.3c18.3 0 25.5 16.5 25.5 32.2 0 16.2-7.5 32.3-25.5 32.3h-76.2c-29.7 0-41.4-14.2-41.4-53.1v-99c0-38.9 11.7-52.3 41.4-52.3h30.9v-60.5c0-5.1-1.2-7.5-5.4-7.5h-41.1c-18 0-25.5-16.5-25.5-32.6 0-15.7 7.2-33 25.5-33h62.1c33.6 0 42 11.8 42 46.4v151.3h-60.9c-8.1 0-11.4 3.1-11.4 13.3v49.2c0 10.2 3.3 13.3 11.4 13.3zm239.1-25.5v-33c0-30.3 3.6-48.8 20.4-61.7 13.2-10.3 24-18.5 30.3-26 9.6-11.4 12-20 12-33.4 0-18.1-11.1-29.5-24.6-29.5-13.8 0-26.1 9.1-29.7 25.2-4.2 18.9-16.8 29.5-33.3 27.9-13.8-1.2-26.1-13.4-25.5-37.7 1.2-48 40.5-84.9 88.5-84.9 49.8 0 85.8 31.8 85.8 99 0 26.3-4.5 45.2-15.3 61.7-9 13.8-23.4 27.5-38.1 40.1-8.4 7.5-9.9 15.3-9.9 25.5v26.8zm30.3 21.2c20.1 0 32.1 15.7 32.1 39.7 0 24-12 39.7-32.1 39.7-20.1 0-32.1-15.3-32.1-39.7 0-24.4 12-39.7 32.1-39.7zm-434.4 179.1c18.3 0 23.7 18.5 23.7 34.2 0 16.1-5.7 34.2-23.7 34.2h-9.3v59h-60v-151.3c0-25.6 14.1-39 30-39 15.9 0 30 13.4 30 39v23.9zm-99.9 120.3h-126c-28.5 0-39.6-9.1-39.6-44.4v-84.5c0-35 11.1-44.8 39.6-44.8h88.2c26.7 0 37.8 9.8 37.8 47.5zm-109.5-64c0 4.7 1.8 7.4 6.3 7.4h48v-53.8c0-4.3-1.5-7.1-5.7-7.1h-42.9c-4.2 0-5.7 2.8-5.7 7.5zm192.6 202.8c12 0 17.1 12.6 17.1 24.3 0 11-4.8 22.8-17.1 22.8h-197.1c-27.3 0-42-23.1-42-50.7v-9.4c0-26.7 14.7-44.8 42-44.8h145.5v-9.4c0-4.7-0.9-6.7-4.8-6.7h-162.9c-11.7 0-16.5-11-16.5-22.8 0-11 5.1-23.2 16.5-23.2h192.9c26.4 0 35.7 10.2 35.7 40.5v63.7h-178.5c-4.2 0-6.3 3.1-6.3 7v2c0 3.5 2.1 6.7 6.3 6.7zm334.5-288.1v335.2h-52.5v-161.1h-15v161.1h-52.5v-335.2c0-20.4 10.5-33.8 26.4-33.8 15.9 0 26.1 13.4 26.1 33.8v108.9h15v-108.9c0-20.4 10.5-33.8 26.4-33.8 15.9 0 26.1 13.4 26.1 33.8zm-152.7 254.3c18.3 0 25.5 16.5 25.5 32.2 0 16.1-7.5 32.2-25.5 32.2h-76.2c-29.7 0-41.4-14.1-41.4-53v-99.1c0-38.9 11.7-52.2 41.4-52.2h30.9v-60.5c0-5.2-1.2-7.5-5.4-7.5h-41.1c-18 0-25.5-16.5-25.5-32.6 0-15.8 7.2-33 25.5-33h62.1c33.6 0 42 11.7 42 46.3v151.3h-60.9c-8.1 0-11.4 3.2-11.4 13.4v49.1c0 10.2 3.3 13.4 11.4 13.4zm239.1-25.6v-33c0-30.2 3.6-48.7 20.4-61.7 13.2-10.2 24-18.4 30.3-25.9 9.6-11.4 12-20.1 12-33.4 0-18.1-11.1-29.5-24.6-29.5-13.8 0-26.1 9-29.7 25.2-4.2 18.8-16.8 29.4-33.3 27.9-13.8-1.2-26.1-13.4-25.5-37.8 1.2-47.9 40.5-84.9 88.5-84.9 49.8 0 85.8 31.9 85.8 99.1 0 26.3-4.5 45.2-15.3 61.7-9 13.7-23.4 27.5-38.1 40.1-8.4 7.4-9.9 15.3-9.9 25.5v26.7zm30.3 21.3c20.1 0 32.1 15.7 32.1 39.7 0 23.9-12 39.6-32.1 39.6-20.1 0-32.1-15.3-32.1-39.6 0-24.4 12-39.7 32.1-39.7z"/>
</svg>