<svg xmlns="http://www.w3.org/2000/svg"
     viewBox="0 0 2933.3333 2933.3333"
>
  <g transform="matrix(1.3333333,0,0,-1.3333333,0,2933.3333)" id="g10">
    <g transform="scale(0.1)">

      <g transform="scale(1.31406)">
        <path
          style="fill:#f0d122;fill-opacity:1;fill-rule:nonzero;stroke:none"
          d="m 8691.45,16037.7 587.8,-1191 1314.25,-190.9 c 289.5,-42.1 405.1,-397.8 195.6,-602 l -950.97,-927 224.47,-1309 c 49.5,-288.3 -253.17,-508.2 -512.06,-372.1 l -1175.59,618 -1175.5,-618 c -258.92,-136.1 -561.53,83.8 -512.08,372.1 l 224.5,1309 -951.02,927 c -209.48,204.2 -93.89,559.9 195.6,602 l 1314.28,190.9 587.8,1191 c 129.44,262.3 503.47,262.3 632.92,0"/>
      </g>
      <path
        style="fill:#060707;fill-opacity:1;fill-rule:nonzero;stroke:none"
        d="m 11005.2,14350.7 c -165.4,0 -330.8,-86.2 -415.8,-258.5 l -772.4,-1565 -1727.05,-251 c -380.4,-55.2 -532.29,-522.7 -257.03,-791 L 9082.63,10267 8787.61,8546.9 c -51.41,-299.7 186.76,-543.2 457.01,-543.2 71.3,0 144.88,17 215.9,54.3 L 11005.2,8870.2 12550,8058 c 71,-37.3 144.5,-54.3 215.9,-54.3 270.2,0 508.4,243.5 457,543.2 l -295,1720.1 1249.7,1218.2 c 275.2,268.3 123.3,735.8 -257.1,791 l -1727,251 -772.4,1565 c -85,172.3 -250.4,258.5 -415.9,258.5 z m 0,-200 c 102.7,0 191.1,-55 236.6,-147 l 772.3,-1565 46.6,-94.3 104,-15.1 1727.1,-251 c 101.6,-14.7 181.2,-81.9 212.9,-179.5 31.7,-97.7 6.8,-198.7 -66.7,-270.4 l -1249.7,-1218.2 -75.3,-73.4 17.7,-103.6 295.1,-1720.1 c 13.4,-78.2 -6.7,-153.8 -56.6,-213 -50.9,-60.3 -126.9,-96.4 -203.3,-96.4 -42,0 -83.3,10.6 -122.9,31.4 l -1544.7,812.1 -93.1,48.9 -93,-48.9 -1544.75,-812.1 c -39.54,-20.8 -80.87,-31.4 -122.83,-31.4 -76.46,0 -152.49,36.1 -203.37,96.4 -49.86,59.2 -69.93,134.8 -56.52,213 l 295.02,1720.1 17.77,103.6 -75.29,73.4 -1249.71,1218.2 c -73.52,71.7 -98.47,172.7 -66.74,270.4 31.72,97.6 111.32,164.8 212.93,179.5 l 1727.05,251 104.05,15.1 46.54,94.3 772.35,1565 c 45.4,92 133.9,147 236.5,147"/>
      <path
        style="fill:#0f0f0f;fill-opacity:1;fill-rule:nonzero;stroke:none"
        d="m 11421.1,7109.8 772.4,-1565 1727,-250.9 c 380.4,-55.3 532.3,-522.8 257.1,-791.1 l -1249.7,-1218.1 295,-1720.1 c 65,-378.9 -332.7,-667.799 -672.9,-488.9 l -1544.8,812.1 -1544.68,-812.1 c -340.24,-178.899 -737.89,110 -672.91,488.9 l 295.02,1720.1 -1249.71,1218.1 c -275.26,268.3 -123.37,735.8 257.03,791.1 l 1727.05,250.9 772.4,1565 c 170.1,344.7 661.6,344.7 831.7,0"/>
      <g transform="scale(1.31959)"></g>
    </g>
  </g>
</svg>
